<svg xmlns="http://www.w3.org/2000/svg" viewBox="0 0 370 320" width="370" height="320"><path d="M206 232 Q262 236 266 268 Q266 286 250 280 Q256 266 234 256 Q214 248 206 232 Z" fill="#8a5c3a" stroke="#4a3526" stroke-width="6" stroke-linejoin="round"/><circle cx="166" cy="246" r="15" fill="#a06e49" stroke="#4a3526" stroke-width="6"/><circle cx="204" cy="246" r="15" fill="#a06e49" stroke="#4a3526" stroke-width="6"/><ellipse cx="185" cy="200" rx="54" ry="52" fill="#a06e49" stroke="#4a3526" stroke-width="6"/><ellipse cx="185" cy="208" rx="34" ry="38" fill="#f6e7d3"/><circle cx="139" cy="58" r="17" fill="#a06e49" stroke="#4a3526" stroke-width="6"/><circle cx="231" cy="58" r="17" fill="#a06e49" stroke="#4a3526" stroke-width="6"/><circle cx="139" cy="58" r="7" fill="#7d5236"/><circle cx="231" cy="58" r="7" fill="#7d5236"/><ellipse cx="185" cy="95" rx="62" ry="58" fill="#a06e49" stroke="#4a3526" stroke-width="6"/><ellipse cx="185" cy="118" rx="42" ry="34" fill="#f6e7d3"/><ellipse cx="185" cy="112" rx="9" ry="6.5" fill="#4a3526"/><path d="M185 118 v6" stroke="#4a3526" stroke-width="3" stroke-linecap="round"/><circle cx="150" cy="126" r="1.8" fill="#4a3526"/><circle cx="158" cy="132" r="1.8" fill="#4a3526"/><circle cx="220" cy="126" r="1.8" fill="#4a3526"/><circle cx="212" cy="132" r="1.8" fill="#4a3526"/><ellipse cx="163" cy="96" rx="12.5" ry="15.5" fill="#fff" stroke="#4a3526" stroke-width="3"/><circle cx="168" cy="98" r="7.5" fill="#3b2a20"/><ellipse cx="207" cy="96" rx="12.5" ry="15.5" fill="#fff" stroke="#4a3526" stroke-width="3"/><circle cx="212" cy="98" r="7.5" fill="#3b2a20"/><path d="M176 134 L194 134" stroke="#4a3526" stroke-width="4" stroke-linecap="round"/><path d="M148 184 L112 170" fill="none" stroke="#4a3526" stroke-width="20" stroke-linecap="round"/><path d="M148 184 L112 170" fill="none" stroke="#a06e49" stroke-width="15" stroke-linecap="round"/><circle cx="112" cy="170" r="12" fill="#a06e49" stroke="#4a3526" stroke-width="6"/><path d="M222 184 L258 170" fill="none" stroke="#4a3526" stroke-width="20" stroke-linecap="round"/><path d="M222 184 L258 170" fill="none" stroke="#a06e49" stroke-width="15" stroke-linecap="round"/><circle cx="258" cy="170" r="12" fill="#a06e49" stroke="#4a3526" stroke-width="6"/><text x="185" y="300" text-anchor="middle" font-family="'Rounded Mplus 1c','IPAGothic',sans-serif" font-weight="700" font-size="34" fill="#3a2a20" stroke="#ffffff" stroke-width="7" stroke-linejoin="round" paint-order="stroke fill">知らんけど</text></svg>